<svg xmlns="http://www.w3.org/2000/svg" viewBox="7.876 -226.137 658.869 211"><path fill="#4D4D4D" d="M565.907-226H464v211h101.907c71.002 0 100.838-63.999 100.838-105.5S636.909-226 565.907-226zm39.249 23c10.229 5.32 19.214 12.912 26.708 22.632 15.396 19.97 20.881 43.95 20.881 59.748 0 15.798-5.484 39.787-20.881 59.757-7.494 9.72-16.479 17.41-26.708 22.731C593.587-32.115 580.382-29 565.907-29H487.6l88.019-91.5-88.018-91.5h78.307c14.474 0 27.679 2.983 39.248 9zM478-201.485l77.773 80.849L478-39.788v-161.697zm-268-24.652l-101.001 77.049L8-226.137V-15h202v-211.137zM196-107v78H22v-78h174M22-121v-76.843l86.999 66.365L196-197.843V-121H22zm0 0h174"/><path fill="#FFF" d="M22-197.843V-121h174v-76.843l-87.001 66.366z"/><path fill="#4D4D4D" d="M337.375-226L209.815-15h254.606L337.375-226zm8.327 197l47.021-77.936L439.649-29h-93.947zm-8.35-169.968l47.204 78.434L329.352-29h-94.714l102.714-169.968z"/><path fill="#FFF" d="M392.723-106.936L345.702-29h93.947zM478-201.485l77.773 80.848L478-39.788z"/></svg>