<svg xmlns="http://www.w3.org/2000/svg" viewBox="0 0 512 512">
    <path fill="#FFF"
          d="M296 161v75l119 196H108l119-196v-75h69m18-18H209v87.964L92.614 422.658 76.014 450h370.972l-16.6-27.342L314 230.964V143z"/>
    <path fill="none" stroke="#FFF" stroke-width="13" stroke-miterlimit="10"
          d="M260.815 346.898a26.747 26.747 0 0 0 6.584-17.613c0-14.829-12.021-26.85-26.85-26.85s-26.85 12.021-26.85 26.85"/>
    <path fill="none" stroke="#FFF" stroke-width="17" stroke-miterlimit="10"
          d="M154.126 338.556l6.597-1.761c14.141-3.394 28.58-2.828 43.004-1.805 29.932 2.123 57.871 12.339 85.982 21.684 29.155 9.691 58.893 14.06 89.578 11.261l7.928-.753"/>
    <path fill="#FFF"
          d="M316.621 50.681c11.255 0 20.379 9.124 20.379 20.379s-9.124 20.379-20.379 20.379-20.379-9.124-20.379-20.379 9.125-20.379 20.379-20.379m0-13c-18.405 0-33.379 14.974-33.379 33.379s14.974 33.379 33.379 33.379S350 89.465 350 71.06s-14.974-33.379-33.379-33.379z"/>
</svg>
