<?xml version="1.0" encoding="utf-8"?>
<!-- Generator: Adobe Illustrator 21.0.2, SVG Export Plug-In . SVG Version: 6.00 Build 0)  -->
<svg version="1.1" id="Layer_1" xmlns="http://www.w3.org/2000/svg" xmlns:xlink="http://www.w3.org/1999/xlink" x="0px" y="0px"
	 viewBox="0 0 512 512" style="enable-background:new 0 0 512 512;" xml:space="preserve">
<style type="text/css">
	.st0{fill:none;stroke:#000000;stroke-width:14.7463;stroke-miterlimit:10;}
	.st1{fill:none;stroke:#000000;stroke-width:19.2837;stroke-miterlimit:10;}
</style>
<path d="M300.6,158.9v85.1l135,222.3H87.4l135-222.3v-85.1H300.6 M321.1,138.5H201.9v99.8l-132,217.5l-18.8,31h420.8l-18.8-31
	l-132-217.5V138.5z"/>
<path class="st0" d="M260.7,369.7c4.9-5.6,7.5-12.6,7.5-20c0-16.8-13.6-30.5-30.5-30.5s-30.5,13.6-30.5,30.5"/>
<path class="st1" d="M139.7,360.3l7.5-2c16-3.9,32.4-3.2,48.8-2c33.9,2.4,65.7,14,97.6,24.6c33.1,11,66.8,16,101.6,12.8l9-0.9"/>
<path d="M324,33.8c12.8,0,23.1,10.3,23.1,23.1S336.8,80,324,80s-23.1-10.3-23.1-23.1S311.3,33.8,324,33.8 M324,19
	c-20.9,0-37.9,17-37.9,37.9s17,37.9,37.9,37.9s37.9-17,37.9-37.9S344.9,19,324,19z"/>
</svg>
