<?xml version="1.0" encoding="utf-8"?>
<!-- Generator: Adobe Illustrator 19.0.0, SVG Export Plug-In . SVG Version: 6.00 Build 0)  -->
<svg version="1.1" id="Layer_1" xmlns="http://www.w3.org/2000/svg"  x="0px" y="0px"
	 viewBox="518.2 -61.5 962.8 541.4" style="enable-background:new 518.2 -61.5 962.8 541.4;" xml:space="preserve">
<style type="text/css">
	.st0{display:none;fill:#694489;}
	.st1{fill:#FFFFFF;}
</style>
<rect x="363.8" y="-100.7" class="st0" width="1257.7" height="712.7"/>
<g>
	<g>
		<path class="st1" d="M1168.4,323.4L1052,131.8v-70v-18h-18h-69h-18v18v70L830.6,323.4L814,350.8h32h307h32L1168.4,323.4z
			 M962.4,141.1l2.6-4.3v-5v-70h69v70v5l2.6,4.3l72.7,119.7c-25.8,1.4-51.7-2.3-78.9-11.4c-2.7-0.9-5.4-1.8-8.1-2.7
			c-4.2-1.4-8.5-2.9-12.8-4.3c1.6-3.9,2.4-8.1,2.4-12.4c0-18.4-15-33.4-33.4-33.4c-17.5,0-32,13.6-33.2,30.8c-1-0.1-2-0.2-3-0.3
			c-10.3-0.7-21.2-1.3-32.2-0.2L962.4,141.1z M997.1,238.5c-12.6-3.9-25.5-7.2-38.8-9.3c0.5-10.8,9.4-19.4,20.3-19.4
			c11.2,0,20.4,9.1,20.4,20.4C998.9,233,998.3,235.9,997.1,238.5z M846,332.8l52.4-86.3l2.4-0.6c13.2-3.1,27.2-2.5,40.3-1.6
			c26,1.8,50.2,10,75.8,18.6c2.7,0.9,5.4,1.8,8.1,2.7c25.3,8.4,49.5,12.5,73.7,12.5c6.5,0,12.9-0.3,19.4-0.9l1.1-0.1l33.8,55.7
			L846,332.8z"/>
		<g>
			<path class="st1" d="M1054.6-48.5c11.3,0,20.4,9.1,20.4,20.4s-9.1,20.4-20.4,20.4s-20.4-9.1-20.4-20.4
				C1034.2-39.4,1043.4-48.5,1054.6-48.5 M1054.6-61.5c-18.4,0-33.4,15-33.4,33.4s15,33.4,33.4,33.4s33.4-15,33.4-33.4
				S1073-61.5,1054.6-61.5L1054.6-61.5z"/>
		</g>
	</g>
	<g>
		<path class="st1" d="M520.2,400.3h13.8v65.3h33v12.3h-46.8V400.3L520.2,400.3z"/>
		<path class="st1" d="M616.9,400.3h11.9l33.4,77.5h-15.8l-7.2-17.7h-33.6l-7,17.7h-15.4L616.9,400.3z M634.4,448.3l-11.9-31.5
			l-12.2,31.5H634.4z"/>
		<path class="st1" d="M682.1,400.3h30.2c2.9,0,5.8,0.3,8.7,1c2.8,0.7,5.4,1.8,7.6,3.4c2.2,1.6,4,3.6,5.4,6.1c1.4,2.5,2.1,5.5,2.1,9
			c0,4.4-1.2,8-3.7,10.8c-2.5,2.8-5.7,4.9-9.7,6.1v0.2c4.9,0.7,8.9,2.6,12,5.7c3.1,3.1,4.7,7.3,4.7,12.6c0,4.2-0.8,7.8-2.5,10.7
			c-1.7,2.9-3.9,5.2-6.6,7s-5.9,3-9.4,3.8c-3.5,0.8-7.1,1.1-10.8,1.1h-27.9L682.1,400.3L682.1,400.3z M695.9,431.9h12.3
			c4.6,0,8.1-0.9,10.5-2.7c2.4-1.8,3.6-4.4,3.6-7.8c0-3.5-1.2-6-3.7-7.4c-2.5-1.5-6.4-2.2-11.6-2.2h-11.1L695.9,431.9L695.9,431.9z
			 M695.9,466.3h12.4c1.8,0,3.6-0.1,5.7-0.4c2-0.3,3.9-0.8,5.6-1.6c1.7-0.8,3.1-2,4.3-3.5c1.1-1.5,1.7-3.6,1.7-6.1
			c0-4.1-1.4-6.9-4.2-8.5c-2.8-1.6-7-2.4-12.6-2.4h-12.9L695.9,466.3L695.9,466.3z"/>
		<path class="st1" d="M803.1,416.6c-1.5-1.9-3.5-3.5-6.2-4.8c-2.7-1.3-5.3-1.9-8-1.9c-1.6,0-3.2,0.2-4.8,0.6
			c-1.6,0.4-3.1,1-4.4,1.9c-1.3,0.8-2.4,1.9-3.2,3.3c-0.8,1.4-1.3,3-1.3,4.9c0,1.8,0.4,3.2,1.1,4.5c0.7,1.2,1.7,2.3,3,3.2
			c1.3,0.9,2.8,1.6,4.7,2.3c1.8,0.7,3.8,1.3,6,2c2.5,0.8,5.1,1.7,7.7,2.7c2.7,1,5.1,2.4,7.3,4.1c2.2,1.7,4.1,3.8,5.5,6.4
			c1.4,2.6,2.1,5.7,2.1,9.5c0,4.2-0.8,7.8-2.3,10.9c-1.5,3.1-3.6,5.7-6.1,7.7c-2.6,2-5.5,3.6-9,4.6c-3.4,1-7,1.5-10.8,1.5
			c-5,0-10-0.9-14.8-2.8c-4.8-1.9-8.8-4.6-11.8-8.3l9.9-9.2c1.9,2.6,4.4,4.7,7.6,6.2c3.2,1.5,6.3,2.3,9.4,2.3c1.6,0,3.2-0.2,4.9-0.6
			c1.7-0.4,3.2-1.1,4.5-2c1.3-0.9,2.4-2.1,3.3-3.6c0.8-1.4,1.3-3.2,1.3-5.3c0-2-0.5-3.7-1.4-5.1c-1-1.3-2.2-2.5-3.8-3.5
			c-1.6-1-3.5-1.8-5.7-2.6c-2.2-0.7-4.5-1.5-6.9-2.3c-2.3-0.7-4.7-1.6-7-2.6c-2.3-1-4.4-2.4-6.3-4.1c-1.9-1.7-3.4-3.7-4.5-6.2
			c-1.2-2.4-1.8-5.5-1.8-9.1c0-3.9,0.8-7.3,2.5-10.2c1.6-2.8,3.8-5.2,6.5-7.1c2.7-1.9,5.7-3.2,9.1-4.2c3.4-0.9,6.8-1.4,10.3-1.4
			c3.9,0,7.9,0.7,12,2.1c4.1,1.4,7.6,3.5,10.6,6.2L803.1,416.6z"/>
	</g>
	<path class="st1" d="M794,80.2v252.6H536.2V80.2l118,90l10.9,8.3l10.9-8.3L794,80.2 M812,43.8L665.1,155.9L518.2,43.8v307H812V43.8
		L812,43.8z"/>
	<path class="st1" d="M1334.3,61.8c21.4,0,41,4.5,58.2,13.5c15.2,7.9,28.5,19.2,39.6,33.6c22.8,29.5,30.9,65,30.9,88.4
		s-8.1,58.9-30.9,88.4c-11.1,14.4-24.5,25.7-39.6,33.6c-17.2,8.9-36.8,13.5-58.2,13.5h-129.7V197.3V61.8H1334.3 M1334.3,43.8
		c-63.4,0-147.7,0-147.7,0v153.5v153.5c0,0,84.2,0,147.7,0c103.3,0,146.7-93.1,146.7-153.5S1437.6,43.8,1334.3,43.8L1334.3,43.8z"/>
</g>
</svg>
