<?xml version="1.0" encoding="utf-8"?>
<!-- Generator: Adobe Illustrator 19.0.0, SVG Export Plug-In . SVG Version: 6.00 Build 0)  -->
<svg version="1.1" id="Layer_2" xmlns="http://www.w3.org/2000/svg"  x="0px" y="0px"
	 viewBox="-165 167 180 180" enable-background="new -165 167 180 180" xml:space="preserve">
<g>
	<path fill="#010101" d="M-18.5,319.787h-113c-2.209,0-4-1.791-4-4V198.213c0-1.521,0.863-2.911,2.227-3.585
		c1.363-0.675,2.991-0.517,4.201,0.405l53.934,41.178l54.22-41.184c1.21-0.918,2.837-1.072,4.197-0.397
		c1.361,0.675,2.222,2.063,2.222,3.583v117.574C-14.5,317.996-16.291,319.787-18.5,319.787z M-127.5,311.787h105V206.274
		l-48.009,36.466c-2.733,2.077-6.549,2.069-9.277-0.012L-127.5,206.3V311.787z"/>
</g>
</svg>
